<svg id="my-svg" width="100%" xmlns="http://www.w3.org/2000/svg" xmlns:xlink="http://www.w3.org/1999/xlink" class="flowchart" style="max-width: 1152.88px; background-color: transparent;" viewBox="0 0 1152.87890625 2146.9375" role="graphics-document document" aria-roledescription="flowchart-v2"><style>#my-svg{font-family:"trebuchet ms",verdana,arial,sans-serif;font-size:16px;fill:#333;}@keyframes edge-animation-frame{from{stroke-dashoffset:0;}}@keyframes dash{to{stroke-dashoffset:0;}}#my-svg .edge-animation-slow{stroke-dasharray:9,5!important;stroke-dashoffset:900;animation:dash 50s linear infinite;stroke-linecap:round;}#my-svg .edge-animation-fast{stroke-dasharray:9,5!important;stroke-dashoffset:900;animation:dash 20s linear infinite;stroke-linecap:round;}#my-svg .error-icon{fill:#552222;}#my-svg .error-text{fill:#552222;stroke:#552222;}#my-svg .edge-thickness-normal{stroke-width:1px;}#my-svg .edge-thickness-thick{stroke-width:3.5px;}#my-svg .edge-pattern-solid{stroke-dasharray:0;}#my-svg .edge-thickness-invisible{stroke-width:0;fill:none;}#my-svg .edge-pattern-dashed{stroke-dasharray:3;}#my-svg .edge-pattern-dotted{stroke-dasharray:2;}#my-svg .marker{fill:#333333;stroke:#333333;}#my-svg .marker.cross{stroke:#333333;}#my-svg svg{font-family:"trebuchet ms",verdana,arial,sans-serif;font-size:16px;}#my-svg p{margin:0;}#my-svg .label{font-family:"trebuchet ms",verdana,arial,sans-serif;color:#333;}#my-svg .cluster-label text{fill:#333;}#my-svg .cluster-label span{color:#333;}#my-svg .cluster-label span p{background-color:transparent;}#my-svg .label text,#my-svg span{fill:#333;color:#333;}#my-svg .node rect,#my-svg .node circle,#my-svg .node ellipse,#my-svg .node polygon,#my-svg .node path{fill:#ECECFF;stroke:#9370DB;stroke-width:1px;}#my-svg .rough-node .label text,#my-svg .node .label text,#my-svg .image-shape .label,#my-svg .icon-shape .label{text-anchor:middle;}#my-svg .node .katex path{fill:#000;stroke:#000;stroke-width:1px;}#my-svg .rough-node .label,#my-svg .node .label,#my-svg .image-shape .label,#my-svg .icon-shape .label{text-align:center;}#my-svg .node.clickable{cursor:pointer;}#my-svg .root .anchor path{fill:#333333!important;stroke-width:0;stroke:#333333;}#my-svg .arrowheadPath{fill:#333333;}#my-svg .edgePaths .path{stroke:#333333;stroke-width:1px;}#my-svg .flowchart-link{stroke:#333333;fill:none;}#my-svg .edgeLabel{background-color:rgba(232,232,232, 0.8);text-align:center;}#my-svg .edgeLabel p{background-color:rgba(232,232,232, 0.8);}#my-svg .edgeLabel rect{opacity:0.5;background-color:rgba(232,232,232, 0.8);fill:rgba(232,232,232, 0.8);}#my-svg .labelBkg{background-color:rgba(232, 232, 232, 0.5);}#my-svg .cluster rect{fill:#ffffde;stroke:#aaaa33;stroke-width:1px;}#my-svg .cluster text{fill:#333;}#my-svg .cluster span{color:#333;}#my-svg .node .collapsed-indicator{fill:#aaaa33;stroke:none;opacity:0.6;}#my-svg .node .collapsed-separator{stroke:#aaaa33;stroke-width:0.75px;}#my-svg div.mermaidTooltip{position:absolute;text-align:center;max-width:200px;padding:2px;font-family:"trebuchet ms",verdana,arial,sans-serif;font-size:12px;background:hsl(80, 100%, 96.2745098039%);border:1px solid #aaaa33;border-radius:2px;pointer-events:none;z-index:100;}#my-svg .flowchartTitleText{text-anchor:middle;font-size:18px;fill:#333;}#my-svg rect.text{fill:none;stroke-width:0;}#my-svg .icon-shape,#my-svg .image-shape{background-color:rgba(232,232,232, 0.8);text-align:center;}#my-svg .icon-shape p,#my-svg .image-shape p{background-color:rgba(232,232,232, 0.8);padding:2px;}#my-svg .icon-shape .label rect,#my-svg .image-shape .label rect{opacity:0.5;background-color:rgba(232,232,232, 0.8);fill:rgba(232,232,232, 0.8);}#my-svg .label-icon{display:inline-block;height:1em;overflow:visible;vertical-align:-0.125em;}#my-svg .node .label-icon path{fill:currentColor;stroke:revert;stroke-width:revert;}#my-svg .node .neo-node{stroke:#9370DB;}#my-svg [data-look="neo"].node rect,#my-svg [data-look="neo"].cluster rect,#my-svg [data-look="neo"].node polygon{stroke:#9370DB;filter:drop-shadow(1px 2px 2px rgba(185, 185, 185, 1));}#my-svg [data-look="neo"].swimlane.cluster rect{filter:none;}#my-svg [data-look="neo"].node path{stroke:#9370DB;stroke-width:1px;}#my-svg [data-look="neo"].node .outer-path{filter:drop-shadow(1px 2px 2px rgba(185, 185, 185, 1));}#my-svg [data-look="neo"].node .neo-line path{stroke:#9370DB;filter:none;}#my-svg [data-look="neo"].node circle{stroke:#9370DB;filter:drop-shadow(1px 2px 2px rgba(185, 185, 185, 1));}#my-svg [data-look="neo"].node circle .state-start{fill:#000000;}#my-svg [data-look="neo"].icon-shape .icon{fill:#9370DB;filter:drop-shadow(1px 2px 2px rgba(185, 185, 185, 1));}#my-svg [data-look="neo"].icon-shape .icon-neo path{stroke:#9370DB;filter:drop-shadow(1px 2px 2px rgba(185, 185, 185, 1));}#my-svg :root{--mermaid-font-family:"trebuchet ms",verdana,arial,sans-serif;}</style><g><marker id="my-svg_flowchart-v2-pointEnd" class="marker flowchart-v2" viewBox="0 0 10 10" refX="5" refY="5" markerUnits="userSpaceOnUse" markerWidth="8" markerHeight="8" orient="auto"><path d="M 0 0 L 10 5 L 0 10 z" class="arrowMarkerPath" style="stroke-width: 1; stroke-dasharray: 1, 0;"/></marker><marker id="my-svg_flowchart-v2-pointStart" class="marker flowchart-v2" viewBox="0 0 10 10" refX="4.5" refY="5" markerUnits="userSpaceOnUse" markerWidth="8" markerHeight="8" orient="auto"><path d="M 0 5 L 10 10 L 10 0 z" class="arrowMarkerPath" style="stroke-width: 1; stroke-dasharray: 1, 0;"/></marker><marker id="my-svg_flowchart-v2-pointEnd-margin" class="marker flowchart-v2" viewBox="0 0 11.5 14" refX="11.5" refY="7" markerUnits="userSpaceOnUse" markerWidth="10.5" markerHeight="14" orient="auto"><path d="M 0 0 L 11.5 7 L 0 14 z" class="arrowMarkerPath" style="stroke-width: 0; stroke-dasharray: 1, 0;"/></marker><marker id="my-svg_flowchart-v2-pointStart-margin" class="marker flowchart-v2" viewBox="0 0 11.5 14" refX="1" refY="7" markerUnits="userSpaceOnUse" markerWidth="11.5" markerHeight="14" orient="auto"><polygon points="0,7 11.5,14 11.5,0" class="arrowMarkerPath" style="stroke-width: 0; stroke-dasharray: 1, 0;"/></marker><marker id="my-svg_flowchart-v2-circleEnd" class="marker flowchart-v2" viewBox="0 0 10 10" refX="11" refY="5" markerUnits="userSpaceOnUse" markerWidth="11" markerHeight="11" orient="auto"><circle cx="5" cy="5" r="5" class="arrowMarkerPath" style="stroke-width: 1; stroke-dasharray: 1, 0;"/></marker><marker id="my-svg_flowchart-v2-circleStart" class="marker flowchart-v2" viewBox="0 0 10 10" refX="-1" refY="5" markerUnits="userSpaceOnUse" markerWidth="11" markerHeight="11" orient="auto"><circle cx="5" cy="5" r="5" class="arrowMarkerPath" style="stroke-width: 1; stroke-dasharray: 1, 0;"/></marker><marker id="my-svg_flowchart-v2-circleEnd-margin" class="marker flowchart-v2" viewBox="0 0 10 10" refY="5" refX="12.25" markerUnits="userSpaceOnUse" markerWidth="14" markerHeight="14" orient="auto"><circle cx="5" cy="5" r="5" class="arrowMarkerPath" style="stroke-width: 0; stroke-dasharray: 1, 0;"/></marker><marker id="my-svg_flowchart-v2-circleStart-margin" class="marker flowchart-v2" viewBox="0 0 10 10" refX="-2" refY="5" markerUnits="userSpaceOnUse" markerWidth="14" markerHeight="14" orient="auto"><circle cx="5" cy="5" r="5" class="arrowMarkerPath" style="stroke-width: 0; stroke-dasharray: 1, 0;"/></marker><marker id="my-svg_flowchart-v2-crossEnd" class="marker cross flowchart-v2" viewBox="0 0 11 11" refX="12" refY="5.2" markerUnits="userSpaceOnUse" markerWidth="11" markerHeight="11" orient="auto"><path d="M 1,1 l 9,9 M 10,1 l -9,9" class="arrowMarkerPath" style="stroke-width: 2; stroke-dasharray: 1, 0;"/></marker><marker id="my-svg_flowchart-v2-crossStart" class="marker cross flowchart-v2" viewBox="0 0 11 11" refX="-1" refY="5.2" markerUnits="userSpaceOnUse" markerWidth="11" markerHeight="11" orient="auto"><path d="M 1,1 l 9,9 M 10,1 l -9,9" class="arrowMarkerPath" style="stroke-width: 2; stroke-dasharray: 1, 0;"/></marker><marker id="my-svg_flowchart-v2-crossEnd-margin" class="marker cross flowchart-v2" viewBox="0 0 15 15" refX="17.7" refY="7.5" markerUnits="userSpaceOnUse" markerWidth="12" markerHeight="12" orient="auto"><path d="M 1,1 L 14,14 M 1,14 L 14,1" class="arrowMarkerPath" style="stroke-width: 2.5;"/></marker><marker id="my-svg_flowchart-v2-crossStart-margin" class="marker cross flowchart-v2" viewBox="0 0 15 15" refX="-3.5" refY="7.5" markerUnits="userSpaceOnUse" markerWidth="12" markerHeight="12" orient="auto"><path d="M 1,1 L 14,14 M 1,14 L 14,1" class="arrowMarkerPath" style="stroke-width: 2.5; stroke-dasharray: 1, 0;"/></marker><g class="root"><g class="clusters"/><g class="edgePaths"><path d="M527.523,71.5L527.44,75.583C527.357,79.667,527.19,87.833,527.107,95.417C527.023,103,527.023,110,527.023,113.5L527.023,117" id="my-svg-L_T_G_0" class="edge-thickness-normal edge-pattern-solid edge-thickness-normal edge-pattern-solid flowchart-link" style=";" data-edge="true" data-et="edge" data-id="L_T_G_0" data-points="W3sieCI6NTI3LjUyMzQzNzUsInkiOjcxLjUwMDAwMDAwMDAwMDAzfSx7IngiOjUyNy4wMjM0Mzc1LCJ5Ijo5Nn0seyJ4Ijo1MjcuMDIzNDM3NSwieSI6MTIxfV0=" data-look="classic" marker-end="url(#my-svg_flowchart-v2-pointEnd)"/><path d="M438.726,358.702L414.042,379.585C389.359,400.468,339.992,442.234,315.308,494.45C290.625,546.667,290.625,609.333,290.625,672C290.625,734.667,290.625,797.333,290.625,859.211C290.625,921.089,290.625,982.177,290.625,1043.266C290.625,1104.354,290.625,1165.443,290.625,1206.654C290.625,1247.865,290.625,1269.198,290.625,1288.531C290.625,1307.865,290.625,1325.198,290.625,1361.198C290.625,1397.198,290.625,1451.865,290.625,1508.531C290.625,1565.198,290.625,1623.865,290.625,1679.648C290.625,1735.432,290.625,1788.333,290.625,1841.234C290.625,1894.135,290.625,1947.036,361.72,1986.324C432.814,2025.611,575.003,2051.284,646.098,2064.121L717.193,2076.958" id="my-svg-L_G_X_0" class="edge-thickness-normal edge-pattern-solid edge-thickness-normal edge-pattern-solid flowchart-link" style=";" data-edge="true" data-et="edge" data-id="L_G_X_0" data-points="W3sieCI6NDM4LjcyNTgxMzEyNDMzOTksInkiOjM1OC43MDIzNzU2MjQzMzk5fSx7IngiOjI5MC42MjUsInkiOjQ4NH0seyJ4IjoyOTAuNjI1LCJ5Ijo2NzJ9LHsieCI6MjkwLjYyNSwieSI6ODYwfSx7IngiOjI5MC42MjUsInkiOjEwNDMuMjY1NjI1fSx7IngiOjI5MC42MjUsInkiOjEyMjYuNTMxMjV9LHsieCI6MjkwLjYyNSwieSI6MTI5MC41MzEyNX0seyJ4IjoyOTAuNjI1LCJ5IjoxMzQyLjUzMTI1fSx7IngiOjI5MC42MjUsInkiOjE1MDYuNTMxMjV9LHsieCI6MjkwLjYyNSwieSI6MTY4Mi41MzEyNX0seyJ4IjoyOTAuNjI1LCJ5IjoxODQxLjIzNDM3NX0seyJ4IjoyOTAuNjI1LCJ5IjoxOTk5LjkzNzV9LHsieCI6NzIxLjEyODkwNjI1LCJ5IjoyMDc3LjY2ODI4MjQ4NjAzNH1d" data-look="classic" marker-end="url(#my-svg_flowchart-v2-pointEnd)"/><path d="M578.761,395.263L585.638,410.052C592.515,424.842,606.269,454.421,613.146,474.71C620.023,495,620.023,506,620.023,511.5L620.023,517" id="my-svg-L_G_L_0" class="edge-thickness-normal edge-pattern-solid edge-thickness-normal edge-pattern-solid flowchart-link" style=";" data-edge="true" data-et="edge" data-id="L_G_L_0" data-points="W3sieCI6NTc4Ljc2MDYzODg2NTE4NzcsInkiOjM5NS4yNjI3OTg2MzQ4MTIyN30seyJ4Ijo2MjAuMDIzNDM3NSwieSI6NDg0fSx7IngiOjYyMC4wMjM0Mzc1LCJ5Ijo1MjF9XQ==" data-look="classic" marker-end="url(#my-svg_flowchart-v2-pointEnd)"/><path d="M546.186,749.163L528.509,767.636C510.832,786.108,475.479,823.054,457.802,872.071C440.125,921.089,440.125,982.177,440.125,1043.266C440.125,1104.354,440.125,1165.443,440.125,1201.487C440.125,1237.531,440.125,1248.531,440.125,1254.031L440.125,1259.531" id="my-svg-L_L_K_0" class="edge-thickness-normal edge-pattern-solid edge-thickness-normal edge-pattern-solid flowchart-link" style=";" data-edge="true" data-et="edge" data-id="L_L_K_0" data-points="W3sieCI6NTQ2LjE4NjAzNzU3MjIwMDcsInkiOjc0OS4xNjI2MDAwNzIyMDA3fSx7IngiOjQ0MC4xMjUsInkiOjg2MH0seyJ4Ijo0NDAuMTI1LCJ5IjoxMDQzLjI2NTYyNX0seyJ4Ijo0NDAuMTI1LCJ5IjoxMjI2LjUzMTI1fSx7IngiOjQ0MC4xMjUsInkiOjEyNjMuNTMxMjV9XQ==" data-look="classic" marker-end="url(#my-svg_flowchart-v2-pointEnd)"/><path d="M673.436,769.587L681.684,784.656C689.931,799.725,706.427,829.862,714.674,850.431C722.922,871,722.922,882,722.922,887.5L722.922,893" id="my-svg-L_L_F_0" class="edge-thickness-normal edge-pattern-solid edge-thickness-normal edge-pattern-solid flowchart-link" style=";" data-edge="true" data-et="edge" data-id="L_L_F_0" data-points="W3sieCI6NjczLjQzNjExMzc0NTQ2OCwieSI6NzY5LjU4NzMyMzc1NDUzMn0seyJ4Ijo3MjIuOTIxODc1LCJ5Ijo4NjB9LHsieCI6NzIyLjkyMTg3NSwieSI6ODk3fV0=" data-look="classic" marker-end="url(#my-svg_flowchart-v2-pointEnd)"/><path d="M765.422,1147.031L770.849,1160.281C776.276,1173.531,787.13,1200.031,792.557,1223.948C797.984,1247.865,797.984,1269.198,797.984,1288.531C797.984,1307.865,797.984,1325.198,797.984,1361.198C797.984,1397.198,797.984,1451.865,797.984,1508.531C797.984,1565.198,797.984,1623.865,797.984,1679.648C797.984,1735.432,797.984,1788.333,797.984,1841.234C797.984,1894.135,797.984,1947.036,795.824,1983.004C793.663,2018.971,789.341,2038.004,787.181,2047.52L785.02,2057.037" id="my-svg-L_F_X_0" class="edge-thickness-normal edge-pattern-solid edge-thickness-normal edge-pattern-solid flowchart-link" style=";" data-edge="true" data-et="edge" data-id="L_F_X_0" data-points="W3sieCI6NzY1LjQyMjMzMjQxODQ5NjQsInkiOjExNDcuMDMwNzkyNTgxNTAzNn0seyJ4Ijo3OTcuOTg0Mzc1LCJ5IjoxMjI2LjUzMTI1fSx7IngiOjc5Ny45ODQzNzUsInkiOjEyOTAuNTMxMjV9LHsieCI6Nzk3Ljk4NDM3NSwieSI6MTM0Mi41MzEyNX0seyJ4Ijo3OTcuOTg0Mzc1LCJ5IjoxNTA2LjUzMTI1fSx7IngiOjc5Ny45ODQzNzUsInkiOjE2ODIuNTMxMjV9LHsieCI6Nzk3Ljk4NDM3NSwieSI6MTg0MS4yMzQzNzV9LHsieCI6Nzk3Ljk4NDM3NSwieSI6MTk5OS45Mzc1fSx7IngiOjc4NC4xMzQyNzczNDM3NSwieSI6MjA2MC45Mzc1fV0=" data-look="classic" marker-end="url(#my-svg_flowchart-v2-pointEnd)"/><path d="M679.649,1146.258L674.028,1159.637C668.407,1173.016,657.164,1199.774,651.543,1218.652C645.922,1237.531,645.922,1248.531,645.922,1254.031L645.922,1259.531" id="my-svg-L_F_K2_0" class="edge-thickness-normal edge-pattern-solid edge-thickness-normal edge-pattern-solid flowchart-link" style=";" data-edge="true" data-et="edge" data-id="L_F_K2_0" data-points="W3sieCI6Njc5LjY0ODk1NjcwNzM5MDMsInkiOjExNDYuMjU4MzMxNzA3MzkwMn0seyJ4Ijo2NDUuOTIxODc1LCJ5IjoxMjI2LjUzMTI1fSx7IngiOjY0NS45MjE4NzUsInkiOjEyNjMuNTMxMjV9XQ==" data-look="classic" marker-end="url(#my-svg_flowchart-v2-pointEnd)"/><path d="M440.125,1317.531L440.125,1321.698C440.125,1325.865,440.125,1334.198,446.446,1350.068C452.766,1365.939,465.407,1389.347,471.728,1401.05L478.048,1412.754" id="my-svg-L_K_S_0" class="edge-thickness-normal edge-pattern-solid edge-thickness-normal edge-pattern-solid flowchart-link" style=";" data-edge="true" data-et="edge" data-id="L_K_S_0" data-points="W3sieCI6NDQwLjEyNSwieSI6MTMxNy41MzEyNX0seyJ4Ijo0NDAuMTI1LCJ5IjoxMzQyLjUzMTI1fSx7IngiOjQ3OS45NDg4NTcxMDYwNTU4LCJ5IjoxNDE2LjI3Mzc5OTE0Mzk0NDJ9XQ==" data-look="classic" marker-end="url(#my-svg_flowchart-v2-pointEnd)"/><path d="M645.922,1317.531L645.922,1321.698C645.922,1325.865,645.922,1334.198,636.428,1351.646C626.934,1369.094,607.947,1395.656,598.453,1408.938L588.959,1422.219" id="my-svg-L_K2_S_0" class="edge-thickness-normal edge-pattern-solid edge-thickness-normal edge-pattern-solid flowchart-link" style=";" data-edge="true" data-et="edge" data-id="L_K2_S_0" data-points="W3sieCI6NjQ1LjkyMTg3NSwieSI6MTMxNy41MzEyNX0seyJ4Ijo2NDUuOTIxODc1LCJ5IjoxMzQyLjUzMTI1fSx7IngiOjU4Ni42MzMzMzI3NzI2NzUyLCJ5IjoxNDI1LjQ3MzE3NjUyMjY3NTJ9XQ==" data-look="classic" marker-end="url(#my-svg_flowchart-v2-pointEnd)"/><path d="M432.395,1549.235L382.298,1571.451C332.201,1593.667,232.007,1638.099,181.91,1679.599C131.813,1721.099,131.813,1759.667,131.813,1778.951L131.813,1798.234" id="my-svg-L_S_E_0" class="edge-thickness-normal edge-pattern-solid edge-thickness-normal edge-pattern-solid flowchart-link" style=";" data-edge="true" data-et="edge" data-id="L_S_E_0" data-points="W3sieCI6NDMyLjM5NTAyMDgwNjQxMzksInkiOjE1NDkuMjM0ODY0NTU2NDEzOX0seyJ4IjoxMzEuODEyNSwieSI6MTY4Mi41MzEyNX0seyJ4IjoxMzEuODEyNSwieSI6MTgwMi4yMzQzNzV9XQ==" data-look="classic" marker-end="url(#my-svg_flowchart-v2-pointEnd)"/><path d="M630.74,1543.482L694.742,1566.657C758.745,1589.832,886.749,1636.182,950.752,1664.856C1014.754,1693.531,1014.754,1704.531,1014.754,1710.031L1014.754,1715.531" id="my-svg-L_S_C_0" class="edge-thickness-normal edge-pattern-solid edge-thickness-normal edge-pattern-solid flowchart-link" style=";" data-edge="true" data-et="edge" data-id="L_S_C_0" data-points="W3sieCI6NjMwLjc0MDIxMjA2NTE2MDksInkiOjE1NDMuNDgyNDQ0MTg0ODM5fSx7IngiOjEwMTQuNzUzOTA2MjUsInkiOjE2ODIuNTMxMjV9LHsieCI6MTAxNC43NTM5MDYyNSwieSI6MTcxOS41MzEyNX1d" data-look="classic" marker-end="url(#my-svg_flowchart-v2-pointEnd)"/><path d="M961.351,1909.535L949.571,1924.602C937.79,1939.669,914.229,1969.803,889.958,1994.627C865.687,2019.45,840.705,2038.963,828.214,2048.719L815.724,2058.475" id="my-svg-L_C_X_0" class="edge-thickness-normal edge-pattern-solid edge-thickness-normal edge-pattern-solid flowchart-link" style=";" data-edge="true" data-et="edge" data-id="L_C_X_0" data-points="W3sieCI6OTYxLjM1MTM5NDA0MjQ5NjYsInkiOjE5MDkuNTM0OTg3NzkyNDk2Nn0seyJ4Ijo4OTAuNjY3OTY4NzUsInkiOjE5OTkuOTM3NX0seyJ4Ijo4MTIuNTcxMjg5MDYyNSwieSI6MjA2MC45Mzc1fV0=" data-look="classic" marker-end="url(#my-svg_flowchart-v2-pointEnd)"/><path d="M1014.85,1962.842L1014.855,1969.024C1014.859,1975.207,1014.869,1987.572,1014.874,1999.255C1014.879,2010.938,1014.879,2021.938,1014.879,2027.438L1014.879,2032.938" id="my-svg-L_C_A_0" class="edge-thickness-normal edge-pattern-solid edge-thickness-normal edge-pattern-solid flowchart-link" style=";" data-edge="true" data-et="edge" data-id="L_C_A_0" data-points="W3sieCI6MTAxNC44NDk2ODgzNDU0MjU1LCJ5IjoxOTYyLjg0MTcxNzkwNDU3NDZ9LHsieCI6MTAxNC44Nzg5MDYyNSwieSI6MTk5OS45Mzc1fSx7IngiOjEwMTQuODc4OTA2MjUsInkiOjIwMzYuOTM3NX1d" data-look="classic" marker-end="url(#my-svg_flowchart-v2-pointEnd)"/></g><g class="edgeLabels"><g class="edgeLabel"><g class="label" data-id="L_T_G_0" transform="translate(0, 0)"><foreignObject width="0" height="0"><div xmlns="http://www.w3.org/1999/xhtml" class="labelBkg" style="display: table-cell; white-space: nowrap; line-height: 1.5; max-width: 200px; text-align: center;"><span class="edgeLabel"></span></div></foreignObject></g></g><g class="edgeLabel" transform="translate(290.625, 1290.53125)"><g class="label" data-id="L_G_X_0" transform="translate(-8.6640625, -12)"><foreignObject width="17.328125" height="24"><div xmlns="http://www.w3.org/1999/xhtml" class="labelBkg" style="display: table-cell; white-space: nowrap; line-height: 1.5; max-width: 200px; text-align: center;"><span class="edgeLabel"><p>no</p></span></div></foreignObject></g></g><g class="edgeLabel" transform="translate(620.0234375, 484)"><g class="label" data-id="L_G_L_0" transform="translate(-11.546875, -12)"><foreignObject width="23.09375" height="24"><div xmlns="http://www.w3.org/1999/xhtml" class="labelBkg" style="display: table-cell; white-space: nowrap; line-height: 1.5; max-width: 200px; text-align: center;"><span class="edgeLabel"><p>yes</p></span></div></foreignObject></g></g><g class="edgeLabel" transform="translate(440.125, 1043.265625)"><g class="label" data-id="L_L_K_0" transform="translate(-11.546875, -12)"><foreignObject width="23.09375" height="24"><div xmlns="http://www.w3.org/1999/xhtml" class="labelBkg" style="display: table-cell; white-space: nowrap; line-height: 1.5; max-width: 200px; text-align: center;"><span class="edgeLabel"><p>yes</p></span></div></foreignObject></g></g><g class="edgeLabel" transform="translate(722.921875, 860)"><g class="label" data-id="L_L_F_0" transform="translate(-8.6640625, -12)"><foreignObject width="17.328125" height="24"><div xmlns="http://www.w3.org/1999/xhtml" class="labelBkg" style="display: table-cell; white-space: nowrap; line-height: 1.5; max-width: 200px; text-align: center;"><span class="edgeLabel"><p>no</p></span></div></foreignObject></g></g><g class="edgeLabel" transform="translate(797.984375, 1506.53125)"><g class="label" data-id="L_F_X_0" transform="translate(-8.6640625, -12)"><foreignObject width="17.328125" height="24"><div xmlns="http://www.w3.org/1999/xhtml" class="labelBkg" style="display: table-cell; white-space: nowrap; line-height: 1.5; max-width: 200px; text-align: center;"><span class="edgeLabel"><p>no</p></span></div></foreignObject></g></g><g class="edgeLabel" transform="translate(645.921875, 1226.53125)"><g class="label" data-id="L_F_K2_0" transform="translate(-11.546875, -12)"><foreignObject width="23.09375" height="24"><div xmlns="http://www.w3.org/1999/xhtml" class="labelBkg" style="display: table-cell; white-space: nowrap; line-height: 1.5; max-width: 200px; text-align: center;"><span class="edgeLabel"><p>yes</p></span></div></foreignObject></g></g><g class="edgeLabel"><g class="label" data-id="L_K_S_0" transform="translate(0, 0)"><foreignObject width="0" height="0"><div xmlns="http://www.w3.org/1999/xhtml" class="labelBkg" style="display: table-cell; white-space: nowrap; line-height: 1.5; max-width: 200px; text-align: center;"><span class="edgeLabel"></span></div></foreignObject></g></g><g class="edgeLabel"><g class="label" data-id="L_K2_S_0" transform="translate(0, 0)"><foreignObject width="0" height="0"><div xmlns="http://www.w3.org/1999/xhtml" class="labelBkg" style="display: table-cell; white-space: nowrap; line-height: 1.5; max-width: 200px; text-align: center;"><span class="edgeLabel"></span></div></foreignObject></g></g><g class="edgeLabel" transform="translate(131.8125, 1682.53125)"><g class="label" data-id="L_S_E_0" transform="translate(-11.546875, -12)"><foreignObject width="23.09375" height="24"><div xmlns="http://www.w3.org/1999/xhtml" class="labelBkg" style="display: table-cell; white-space: nowrap; line-height: 1.5; max-width: 200px; text-align: center;"><span class="edgeLabel"><p>yes</p></span></div></foreignObject></g></g><g class="edgeLabel" transform="translate(1014.75390625, 1682.53125)"><g class="label" data-id="L_S_C_0" transform="translate(-8.6640625, -12)"><foreignObject width="17.328125" height="24"><div xmlns="http://www.w3.org/1999/xhtml" class="labelBkg" style="display: table-cell; white-space: nowrap; line-height: 1.5; max-width: 200px; text-align: center;"><span class="edgeLabel"><p>no</p></span></div></foreignObject></g></g><g class="edgeLabel" transform="translate(895.4905, 1993.76959)"><g class="label" data-id="L_C_X_0" transform="translate(-8.6640625, -12)"><foreignObject width="17.328125" height="24"><div xmlns="http://www.w3.org/1999/xhtml" class="labelBkg" style="display: table-cell; white-space: nowrap; line-height: 1.5; max-width: 200px; text-align: center;"><span class="edgeLabel"><p>no</p></span></div></foreignObject></g></g><g class="edgeLabel" transform="translate(1014.87890625, 1999.9375)"><g class="label" data-id="L_C_A_0" transform="translate(-11.546875, -12)"><foreignObject width="23.09375" height="24"><div xmlns="http://www.w3.org/1999/xhtml" class="labelBkg" style="display: table-cell; white-space: nowrap; line-height: 1.5; max-width: 200px; text-align: center;"><span class="edgeLabel"><p>yes</p></span></div></foreignObject></g></g></g><g class="nodes"><g class="node default" id="my-svg-flowchart-T-0" data-look="classic" transform="translate(527.0234375, 39.5)"><g class="basic label-container outer-path"><path d="M-83.875 -31.5 C-28.788762366149527 -31.5, 26.297475267700946 -31.5, 83.875 -31.5 C83.875 -31.5, 83.875 -31.5, 83.875 -31.5 C84.504418339414 -31.47981577894347, 85.133836678828 -31.459631557886937, 85.89321192939245 -31.435279871635593 C86.30856858002483 -31.395210915088544, 86.72392523065722 -31.3551419585415, 87.90313059306193 -31.241385435432253 C88.55448759749636 -31.136079086304306, 89.20584460193078 -31.03077273717636, 89.89649680409322 -30.91911344521856 C90.5069660982655 -30.77977781250818, 91.11743539243777 -30.640442179797795, 91.86511939314947 -30.469788185729428 C92.31496764879468 -30.33627558475561, 92.76481590443989 -30.202762983781795, 93.80090886774406 -29.895256030836062 C94.53514202587445 -29.625051441467164, 95.26937518400486 -29.354846852098262, 95.69591065370028 -29.197877856399685 C96.36717893897595 -28.900727298974335, 97.03844722425163 -28.603576741548988, 97.54233778220308 -28.380519338926202 C97.97764331051168 -28.153420723634103, 98.41294883882028 -27.926322108342003, 99.33260288812403 -27.44653917988677 C99.7774793354055 -27.176852463160547, 100.22235578268696 -26.907165746434327, 101.05934938813228 -26.399775304092984 C101.50237460745895 -26.09074008934334, 101.94539982678563 -25.781704874593693, 102.7154817104733 -25.244529088840633 C103.2822813446395 -24.792521463764807, 103.84908097880569 -24.340513838688985, 104.29419445219533 -23.985547688627737 C104.82971069967971 -23.49920600164589, 105.3652269471641 -23.012864314664046, 105.78900034400982 -22.62800452807842 C106.15222940193146 -22.252940704114057, 106.51545845985311 -21.877876880149692, 107.19375690787243 -21.177478043231485 C107.65458112643411 -20.636167694468064, 108.1154053449958 -20.09485734570464, 108.50269169774293 -19.63992875855011 C108.91358671204418 -19.08936687269232, 109.32448172634543 -18.538804986834528, 109.7104260198041 -18.02167479384835 C110.1243505173769 -17.385775611285865, 110.5382750149497 -16.74987642872338, 110.8119970346684 -16.329365901781543 C111.1114519442376 -15.797653386743715, 111.4109068538068 -15.265940871705888, 111.8028781507495 -14.56995614258631 C112.08046727954687 -13.993536377182723, 112.35805640834423 -13.417116611779138, 112.67899762499809 -12.750675308355413 C112.94585294782625 -12.09153750167316, 113.21270827065442 -11.432399694990908, 113.43675529456745 -10.878999214271206 C113.64604566836381 -10.248649954289158, 113.85533604216019 -9.618300694307113, 114.07303737065482 -8.962618978877531 C114.26878288728523 -8.216156487322198, 114.46452840391564 -7.469693995766866, 114.58522923372745 -7.009409419623907 C114.72399233164009 -6.296890239433583, 114.86275542955275 -5.584371059243258, 114.97122617755518 -5.027396693551458 C115.06248905582667 -4.319579831571518, 115.15375193409815 -3.6117629695915787, 115.22944205789975 -3.024725316091981 C115.26896895984746 -2.4090619127154307, 115.30849586179517 -1.7933985093388807, 115.35881581032167 -1.0096246935071378 C115.35881581032167 -0.4170639612647674, 115.35881581032167 0.17549677097760297, 115.35881581032167 1.00962469350713 C115.33127601358368 1.4385792574252405, 115.30373621684568 1.867533821343351, 115.22944205789975 3.02472531609196 C115.14869875320497 3.65095444273571, 115.06795544851019 4.27718356937946, 114.97122617755518 5.027396693551435 C114.82330236485427 5.786954208061723, 114.67537855215336 6.54651172257201, 114.58522923372745 7.0094094196239 C114.39033761051023 7.752615645514949, 114.19544598729301 8.495821871405997, 114.07303737065482 8.96261897887751 C113.85348715482296 9.623869248386628, 113.6339369389911 10.285119517895748, 113.43675529456746 10.878999214271184 C113.1450621198856 11.599486995239253, 112.85336894520374 12.319974776207323, 112.67899762499809 12.750675308355405 C112.49642329531376 13.129794810409752, 112.31384896562945 13.5089143124641, 111.8028781507495 14.569956142586303 C111.43024176226115 15.231609783873399, 111.05760537377279 15.893263425160496, 110.81199703466841 16.329365901781536 C110.5913181382477 16.66838794726469, 110.370639241827 17.007409992747842, 109.71042601980412 18.021674793848334 C109.45451593204434 18.364570997557816, 109.19860584428459 18.7074672012673, 108.50269169774295 19.639928758550102 C108.15975287147798 20.04276421765295, 107.81681404521301 20.445599676755805, 107.19375690787246 21.177478043231467 C106.76828649998471 21.616811171145685, 106.34281609209698 22.056144299059902, 105.78900034400982 22.628004528078414 C105.44942377679915 22.936398981715524, 105.10984720958848 23.244793435352634, 104.29419445219536 23.985547688627715 C103.91038298669653 24.291627118710988, 103.52657152119771 24.59770654879426, 102.71548171047331 25.24452908884063 C102.30384621138487 25.53166819359117, 101.89221071229643 25.81880729834171, 101.05934938813229 26.399775304092973 C100.6971559636165 26.61933908651927, 100.3349625391007 26.838902868945567, 99.33260288812404 27.446539179886766 C98.95632235328688 27.642844493892127, 98.58004181844973 27.839149807897485, 97.54233778220309 28.3805193389262 C96.92754651522611 28.65266919568194, 96.31275524824912 28.924819052437684, 95.6959106537003 29.197877856399682 C94.9481996497611 29.47304241761406, 94.2004886458219 29.748206978828435, 93.80090886774407 29.895256030836055 C93.02934512885842 30.124252098516607, 92.25778138997278 30.353248166197154, 91.86511939314951 30.46978818572942 C91.40357826137804 30.575131937218902, 90.94203712960659 30.68047568870838, 89.89649680409323 30.919113445218557 C89.24590027340717 31.02429684684843, 88.59530374272111 31.129480248478302, 87.90313059306196 31.24138543543225 C87.35121640234208 31.29462793363707, 86.79930221162218 31.34787043184189, 85.89321192939245 31.435279871635593 C85.22496097987894 31.456709378914926, 84.55671003036544 31.47813888619426, 83.875 31.5 C83.875 31.5, 83.875 31.5, 83.875 31.5 C25.312652280855396 31.5, -33.24969543828921 31.5, -83.875 31.5 C-84.369365806746 31.484146650802323, -84.863731613492 31.468293301604646, -85.89321192939244 31.435279871635593 C-86.2957891720149 31.396443729209775, -86.69836641463736 31.357607586783956, -87.90313059306195 31.24138543543225 C-88.58467851868402 31.13119805230078, -89.26622644430607 31.021010669169303, -89.89649680409323 30.919113445218557 C-90.65638929515247 30.74567294289621, -91.4162817862117 30.572232440573863, -91.86511939314947 30.469788185729428 C-92.58945059751578 30.25481048636559, -93.31378180188207 30.03983278700175, -93.80090886774403 29.89525603083607 C-94.19171342663765 29.751436340605476, -94.58251798553127 29.607616650374883, -95.69591065370028 29.197877856399685 C-96.25420074861302 28.950739392469067, -96.81249084352575 28.703600928538453, -97.54233778220308 28.380519338926206 C-97.90612650301289 28.190730996297525, -98.2699152238227 28.000942653668847, -99.33260288812403 27.446539179886773 C-99.71609281102637 27.214065334986437, -100.09958273392871 26.9815914900861, -101.05934938813226 26.399775304092994 C-101.63554160040891 25.99784855976766, -102.21173381268557 25.595921815442324, -102.7154817104733 25.244529088840636 C-103.06315014959803 24.96727276048438, -103.41081858872276 24.690016432128125, -104.29419445219533 23.98554768862774 C-104.59835498233859 23.709317142798263, -104.90251551248184 23.433086596968785, -105.7890003440098 22.628004528078435 C-106.17379163112999 22.230675932174652, -106.55858291825015 21.833347336270865, -107.19375690787244 21.177478043231478 C-107.6404413121359 20.652777124920974, -108.08712571639937 20.128076206610466, -108.50269169774293 19.639928758550113 C-108.82472092475865 19.208438931815156, -109.14675015177438 18.7769491050802, -109.7104260198041 18.021674793848355 C-109.95593894305641 17.64450101428192, -110.20145186630872 17.267327234715488, -110.8119970346684 16.329365901781557 C-111.03024157554829 15.941850619793135, -111.24848611642818 15.554335337804714, -111.8028781507495 14.569956142586314 C-112.00154734596761 14.157415307876102, -112.20021654118572 13.744874473165892, -112.67899762499809 12.750675308355417 C-112.86236697916364 12.297749458361237, -113.04573633332917 11.844823608367054, -113.43675529456745 10.878999214271209 C-113.5962241923494 10.398704302070387, -113.75569309013135 9.918409389869565, -114.07303737065482 8.962618978877522 C-114.25977791335467 8.25049635569977, -114.44651845605453 7.538373732522018, -114.58522923372743 7.009409419623911 C-114.67963972910418 6.524631479529599, -114.77405022448093 6.039853539435287, -114.97122617755518 5.027396693551461 C-115.03666904218875 4.51983475860884, -115.10211190682232 4.012272823666219, -115.22944205789975 3.024725316091999 C-115.26284599411143 2.5044320464230005, -115.29624993032311 1.984138776754002, -115.35881581032167 1.0096246935071416 C-115.35881581032167 0.23170123441388835, -115.35881581032167 -0.5462222246793649, -115.35881581032167 -1.0096246935071262 C-115.33239720349907 -1.4211158194847284, -115.30597859667647 -1.8326069454623308, -115.22944205789975 -3.024725316091956 C-115.16572902852053 -3.518870990396474, -115.1020159991413 -4.0130166647009915, -114.97122617755518 -5.027396693551446 C-114.8230995677576 -5.787995528292016, -114.67497295796 -6.548594363032586, -114.58522923372745 -7.009409419623896 C-114.38340987129537 -7.7790341176423965, -114.1815905088633 -8.548658815660897, -114.07303737065482 -8.962618978877506 C-113.83414876178715 -9.682113407055995, -113.59526015291948 -10.401607835234485, -113.43675529456746 -10.878999214271168 C-113.21136926371862 -11.435707068010279, -112.98598323286977 -11.992414921749388, -112.67899762499809 -12.750675308355401 C-112.33105612259693 -13.473183282846936, -111.98311462019578 -14.19569125733847, -111.8028781507495 -14.5699561425863 C-111.46019430334772 -15.178426014150514, -111.11751045594593 -15.786895885714726, -110.8119970346684 -16.329365901781546 C-110.44627595064917 -16.891211696696825, -110.08055486662994 -17.453057491612103, -109.71042601980412 -18.021674793848344 C-109.3913048695938 -18.44926806259531, -109.07218371938347 -18.876861331342273, -108.50269169774295 -19.639928758550102 C-108.14036454880596 -20.06553884469032, -107.77803739986896 -20.49114893083054, -107.19375690787246 -21.177478043231467 C-106.86194077980319 -21.520105438073745, -106.53012465173391 -21.862732832916024, -105.78900034400984 -22.628004528078403 C-105.33538399346372 -23.039966895613443, -104.8817676429176 -23.451929263148482, -104.29419445219536 -23.98554768862771 C-103.88635250537881 -24.310790788083896, -103.47851055856228 -24.63603388754008, -102.71548171047331 -25.244529088840626 C-102.08710001910934 -25.682860954531133, -101.45871832774539 -26.12119282022164, -101.0593493881323 -26.39977530409297 C-100.66035006206081 -26.64165104033781, -100.26135073598934 -26.88352677658265, -99.33260288812404 -27.446539179886763 C-98.68063061202896 -27.786672698717396, -98.02865833593387 -28.12680621754803, -97.54233778220309 -28.3805193389262 C-97.06576473983284 -28.591484087746494, -96.5891916974626 -28.802448836566786, -95.6959106537003 -29.19787785639968 C-94.99205091250293 -29.456904747568434, -94.28819117130557 -29.715931638737185, -93.80090886774407 -29.895256030836055 C-93.40883846225614 -30.011620469165315, -93.01676805676823 -30.127984907494575, -91.86511939314951 -30.469788185729417 C-91.12533471761259 -30.638639210374556, -90.38555004207565 -30.807490235019696, -89.89649680409325 -30.919113445218553 C-89.4295080367185 -30.994612567575725, -88.96251926934374 -31.070111689932894, -87.90313059306196 -31.24138543543225 C-87.49755861834159 -31.28051047606186, -87.09198664362121 -31.319635516691473, -85.89321192939246 -31.435279871635593 C-85.47939090763137 -31.448550306349716, -85.06556988587027 -31.46182074106384, -83.87500000000001 -31.5 C-83.87500000000001 -31.5, -83.875 -31.5, -83.875 -31.5" stroke="none" stroke-width="0" fill="#ECECFF" style=""/><path d="M-83.875 -31.5 C-19.25146112722797 -31.5, 45.37207774554406 -31.5, 83.875 -31.5 M-83.875 -31.5 C-30.38928377272839 -31.5, 23.09643245454322 -31.5, 83.875 -31.5 M83.875 -31.5 C83.875 -31.5, 83.875 -31.5, 83.875 -31.5 M83.875 -31.5 C83.875 -31.5, 83.875 -31.5, 83.875 -31.5 M83.875 -31.5 C84.42620982657989 -31.482323773726424, 84.9774196531598 -31.464647547452845, 85.89321192939245 -31.435279871635593 M83.875 -31.5 C84.3784609323604 -31.483854987826458, 84.88192186472081 -31.467709975652916, 85.89321192939245 -31.435279871635593 M85.89321192939245 -31.435279871635593 C86.58120553779352 -31.368909955666513, 87.26919914619458 -31.302540039697437, 87.90313059306193 -31.241385435432253 M85.89321192939245 -31.435279871635593 C86.64826590664181 -31.362440722535613, 87.40331988389116 -31.289601573435633, 87.90313059306193 -31.241385435432253 M87.90313059306193 -31.241385435432253 C88.32347145937314 -31.17342798395916, 88.74381232568433 -31.10547053248607, 89.89649680409322 -30.91911344521856 M87.90313059306193 -31.241385435432253 C88.66703546228199 -31.117883220347494, 89.43094033150206 -30.99438100526273, 89.89649680409322 -30.91911344521856 M89.89649680409322 -30.91911344521856 C90.32381043304383 -30.821581897892607, 90.75112406199445 -30.724050350566657, 91.86511939314947 -30.469788185729428 M89.89649680409322 -30.91911344521856 C90.38624151533864 -30.807332410759702, 90.87598622658406 -30.69555137630085, 91.86511939314947 -30.469788185729428 M91.86511939314947 -30.469788185729428 C92.33159303235763 -30.331341258182544, 92.79806667156579 -30.192894330635664, 93.80090886774406 -29.895256030836062 M91.86511939314947 -30.469788185729428 C92.51700184334695 -30.276312896311627, 93.16888429354442 -30.082837606893825, 93.80090886774406 -29.895256030836062 M93.80090886774406 -29.895256030836062 C94.37387030438335 -29.68440092575534, 94.94683174102265 -29.47354582067462, 95.69591065370028 -29.197877856399685 M93.80090886774406 -29.895256030836062 C94.30226914614664 -29.7107508138603, 94.80362942454923 -29.52624559688454, 95.69591065370028 -29.197877856399685 M95.69591065370028 -29.197877856399685 C96.27646518159645 -28.94088358843824, 96.85701970949262 -28.68388932047679, 97.54233778220308 -28.380519338926202 M95.69591065370028 -29.197877856399685 C96.1247411800175 -29.008047303204645, 96.55357170633471 -28.818216750009608, 97.54233778220308 -28.380519338926202 M97.54233778220308 -28.380519338926202 C98.00503671006626 -28.13912960463278, 98.46773563792947 -27.89773987033936, 99.33260288812403 -27.44653917988677 M97.54233778220308 -28.380519338926202 C98.12910296828603 -28.074404317187764, 98.71586815436898 -27.76828929544933, 99.33260288812403 -27.44653917988677 M99.33260288812403 -27.44653917988677 C99.7477232570598 -27.194890772719834, 100.16284362599558 -26.943242365552898, 101.05934938813228 -26.399775304092984 M99.33260288812403 -27.44653917988677 C99.84345575226226 -27.136857171541518, 100.35430861640049 -26.82717516319627, 101.05934938813228 -26.399775304092984 M101.05934938813228 -26.399775304092984 C101.67517009783008 -25.97020543545666, 102.29099080752788 -25.540635566820335, 102.7154817104733 -25.244529088840633 M101.05934938813228 -26.399775304092984 C101.39281549007501 -26.167163786892623, 101.72628159201776 -25.93455226969226, 102.7154817104733 -25.244529088840633 M102.7154817104733 -25.244529088840633 C103.2820446370497 -24.79271023176862, 103.84860756362609 -24.340891374696607, 104.29419445219533 -23.985547688627737 M102.7154817104733 -25.244529088840633 C103.27620098473831 -24.797370388980834, 103.83692025900332 -24.350211689121036, 104.29419445219533 -23.985547688627737 M104.29419445219533 -23.985547688627737 C104.81351241413934 -23.513916855990505, 105.33283037608336 -23.04228602335327, 105.78900034400982 -22.62800452807842 M104.29419445219533 -23.985547688627737 C104.65169104611576 -23.66087874087075, 105.00918764003619 -23.336209793113763, 105.78900034400982 -22.62800452807842 M105.78900034400982 -22.62800452807842 C106.21238212997156 -22.190828073781848, 106.6357639159333 -21.75365161948527, 107.19375690787243 -21.177478043231485 M105.78900034400982 -22.62800452807842 C106.33202569634344 -22.067286268583402, 106.87505104867705 -21.50656800908838, 107.19375690787243 -21.177478043231485 M107.19375690787243 -21.177478043231485 C107.46244440703123 -20.86186241796775, 107.73113190619002 -20.54624679270401, 108.50269169774293 -19.63992875855011 M107.19375690787243 -21.177478043231485 C107.62741746954981 -20.66807567150023, 108.0610780312272 -20.158673299768978, 108.50269169774293 -19.63992875855011 M108.50269169774293 -19.63992875855011 C108.77898819626832 -19.269716621654933, 109.0552846947937 -18.899504484759753, 109.7104260198041 -18.02167479384835 M108.50269169774293 -19.63992875855011 C108.83108780660147 -19.199907890180633, 109.15948391546003 -18.75988702181116, 109.7104260198041 -18.02167479384835 M109.7104260198041 -18.02167479384835 C109.94944721516629 -17.654474051594157, 110.18846841052849 -17.287273309339962, 110.8119970346684 -16.329365901781543 M109.7104260198041 -18.02167479384835 C110.07642233360198 -17.45940617208353, 110.44241864739986 -16.897137550318707, 110.8119970346684 -16.329365901781543 M110.8119970346684 -16.329365901781543 C111.09556226236198 -15.825867125918625, 111.37912749005558 -15.322368350055708, 111.8028781507495 -14.56995614258631 M110.8119970346684 -16.329365901781543 C111.11798178655665 -15.786058990487998, 111.4239665384449 -15.242752079194453, 111.8028781507495 -14.56995614258631 M111.8028781507495 -14.56995614258631 C111.97939953339932 -14.203405714561447, 112.15592091604913 -13.836855286536585, 112.67899762499809 -12.750675308355413 M111.8028781507495 -14.56995614258631 C112.02979174808401 -14.09876520254801, 112.25670534541851 -13.62757426250971, 112.67899762499809 -12.750675308355413 M112.67899762499809 -12.750675308355413 C112.8550000938067 -12.315945807621915, 113.0310025626153 -11.881216306888417, 113.43675529456745 -10.878999214271206 M112.67899762499809 -12.750675308355413 C112.92760805321257 -12.13660274411003, 113.17621848142703 -11.52253017986465, 113.43675529456745 -10.878999214271206 M113.43675529456745 -10.878999214271206 C113.6609060878907 -10.203892738360528, 113.88505688121393 -9.52878626244985, 114.07303737065482 -8.962618978877531 M113.43675529456745 -10.878999214271206 C113.6037829006274 -10.37593867705365, 113.77081050668735 -9.872878139836097, 114.07303737065482 -8.962618978877531 M114.07303737065482 -8.962618978877531 C114.21905248550374 -8.405800062607483, 114.36506760035267 -7.848981146337436, 114.58522923372745 -7.009409419623907 M114.07303737065482 -8.962618978877531 C114.19435555077986 -8.499980178428864, 114.3156737309049 -8.037341377980194, 114.58522923372745 -7.009409419623907 M114.58522923372745 -7.009409419623907 C114.70512841588726 -6.393752459934407, 114.82502759804707 -5.778095500244907, 114.97122617755518 -5.027396693551458 M114.58522923372745 -7.009409419623907 C114.71745162614248 -6.3304753797852875, 114.8496740185575 -5.651541339946668, 114.97122617755518 -5.027396693551458 M114.97122617755518 -5.027396693551458 C115.05222827344427 -4.399160433508776, 115.13323036933335 -3.7709241734660948, 115.22944205789975 -3.024725316091981 M114.97122617755518 -5.027396693551458 C115.0331585917386 -4.547061119083328, 115.09509100592201 -4.0667255446152, 115.22944205789975 -3.024725316091981 M115.22944205789975 -3.024725316091981 C115.27757786299031 -2.274971297283881, 115.32571366808088 -1.525217278475781, 115.35881581032167 -1.0096246935071378 M115.22944205789975 -3.024725316091981 C115.27765707825289 -2.2737374556277854, 115.32587209860604 -1.5227495951635897, 115.35881581032167 -1.0096246935071378 M115.35881581032167 -1.0096246935071378 C115.35881581032167 -0.24334724627361293, 115.35881581032167 0.5229302009599119, 115.35881581032167 1.00962469350713 M115.35881581032167 -1.0096246935071378 C115.35881581032167 -0.43596169627151404, 115.35881581032167 0.1377013009641097, 115.35881581032167 1.00962469350713 M115.35881581032167 1.00962469350713 C115.32940848043393 1.4676675936782597, 115.30000115054618 1.9257104938493894, 115.22944205789975 3.02472531609196 M115.35881581032167 1.00962469350713 C115.3166464463396 1.6664465760257445, 115.27447708235754 2.3232684585443595, 115.22944205789975 3.02472531609196 M115.22944205789975 3.02472531609196 C115.16936898123085 3.4906402359652406, 115.10929590456193 3.9565551558385215, 114.97122617755518 5.027396693551435 M115.22944205789975 3.02472531609196 C115.16280355427077 3.541560390977383, 115.09616505064179 4.058395465862806, 114.97122617755518 5.027396693551435 M114.97122617755518 5.027396693551435 C114.84213026502496 5.69027691996331, 114.71303435249476 6.353157146375184, 114.58522923372745 7.0094094196239 M114.97122617755518 5.027396693551435 C114.84236954109316 5.689048287924106, 114.71351290463116 6.3506998822967775, 114.58522923372745 7.0094094196239 M114.58522923372745 7.0094094196239 C114.45061873079884 7.522737607851683, 114.31600822787024 8.036065796079466, 114.07303737065482 8.96261897887751 M114.58522923372745 7.0094094196239 C114.38072380411975 7.789277255931878, 114.17621837451208 8.569145092239856, 114.07303737065482 8.96261897887751 M114.07303737065482 8.96261897887751 C113.89310083872081 9.5045591440697, 113.71316430678681 10.046499309261891, 113.43675529456746 10.878999214271184 M114.07303737065482 8.96261897887751 C113.82335419686831 9.714624916711173, 113.5736710230818 10.466630854544837, 113.43675529456746 10.878999214271184 M113.43675529456746 10.878999214271184 C113.16390974480706 11.552932997289233, 112.89106419504664 12.22686678030728, 112.67899762499809 12.750675308355405 M113.43675529456746 10.878999214271184 C113.23244492315483 11.383649781732686, 113.0281345517422 11.888300349194187, 112.67899762499809 12.750675308355405 M112.67899762499809 12.750675308355405 C112.37029272342578 13.391707641697074, 112.06158782185346 14.032739975038744, 111.8028781507495 14.569956142586303 M112.67899762499809 12.750675308355405 C112.36308984946069 13.406664563602373, 112.04718207392331 14.062653818849341, 111.8028781507495 14.569956142586303 M111.8028781507495 14.569956142586303 C111.52161393667313 15.069369235768962, 111.24034972259676 15.568782328951619, 110.81199703466841 16.329365901781536 M111.8028781507495 14.569956142586303 C111.45092474980821 15.19488504510401, 111.0989713488669 15.81981394762172, 110.81199703466841 16.329365901781536 M110.81199703466841 16.329365901781536 C110.52218326918444 16.7745976714576, 110.23236950370047 17.219829441133662, 109.71042601980412 18.021674793848334 M110.81199703466841 16.329365901781536 C110.51293723732284 16.78880205930419, 110.2138774399773 17.24823821682684, 109.71042601980412 18.021674793848334 M109.71042601980412 18.021674793848334 C109.31948464497411 18.54550062062862, 108.9285432701441 19.069326447408905, 108.50269169774295 19.639928758550102 M109.71042601980412 18.021674793848334 C109.2298339785471 18.665624346297076, 108.7492419372901 19.309573898745818, 108.50269169774295 19.639928758550102 M108.50269169774295 19.639928758550102 C108.0183914861074 20.208815344599927, 107.53409127447185 20.777701930649755, 107.19375690787246 21.177478043231467 M108.50269169774295 19.639928758550102 C108.20944434810609 19.984393781680453, 107.91619699846923 20.328858804810803, 107.19375690787246 21.177478043231467 M107.19375690787246 21.177478043231467 C106.67357995294577 21.71460345651552, 106.15340299801908 22.251728869799567, 105.78900034400982 22.628004528078414 M107.19375690787246 21.177478043231467 C106.91022058508496 21.47025257527458, 106.62668426229746 21.763027107317694, 105.78900034400982 22.628004528078414 M105.78900034400982 22.628004528078414 C105.22728566534376 23.138138937086953, 104.66557098667771 23.648273346095497, 104.29419445219536 23.985547688627715 M105.78900034400982 22.628004528078414 C105.33088420610366 23.04405348343599, 104.8727680681975 23.460102438793573, 104.29419445219536 23.985547688627715 M104.29419445219536 23.985547688627715 C103.73347210926485 24.43270883566659, 103.17274976633435 24.879869982705458, 102.71548171047331 25.24452908884063 M104.29419445219536 23.985547688627715 C103.9772916743939 24.238269220787288, 103.66038889659245 24.49099075294686, 102.71548171047331 25.24452908884063 M102.71548171047331 25.24452908884063 C102.31791036230112 25.52185765073927, 101.92033901412893 25.799186212637917, 101.05934938813229 26.399775304092973 M102.71548171047331 25.24452908884063 C102.28211148562197 25.546829397402256, 101.84874126077062 25.849129705963882, 101.05934938813229 26.399775304092973 M101.05934938813229 26.399775304092973 C100.52719885965448 26.722368081719853, 99.99504833117665 27.044960859346737, 99.33260288812404 27.446539179886766 M101.05934938813229 26.399775304092973 C100.51390319538929 26.730427991531403, 99.96845700264629 27.061080678969834, 99.33260288812404 27.446539179886766 M99.33260288812404 27.446539179886766 C98.63269626095261 27.81168001897051, 97.9327896337812 28.17682085805425, 97.54233778220309 28.3805193389262 M99.33260288812404 27.446539179886766 C98.77188003459138 27.73906793341463, 98.21115718105871 28.031596686942496, 97.54233778220309 28.3805193389262 M97.54233778220309 28.3805193389262 C96.81219256270876 28.70373296860795, 96.08204734321441 29.0269465982897, 95.6959106537003 29.197877856399682 M97.54233778220309 28.3805193389262 C97.0341126046858 28.605495549048864, 96.5258874271685 28.83047175917153, 95.6959106537003 29.197877856399682 M95.6959106537003 29.197877856399682 C95.218873200631 29.37343204881506, 94.7418357475617 29.548986241230438, 93.80090886774407 29.895256030836055 M95.6959106537003 29.197877856399682 C95.02767126274797 29.443796129407353, 94.35943187179565 29.68971440241502, 93.80090886774407 29.895256030836055 M93.80090886774407 29.895256030836055 C93.38538181470723 30.018582279031378, 92.9698547616704 30.1419085272267, 91.86511939314951 30.46978818572942 M93.80090886774407 29.895256030836055 C93.15018719628583 30.08838680721711, 92.49946552482757 30.281517583598163, 91.86511939314951 30.46978818572942 M91.86511939314951 30.46978818572942 C91.1893358913304 30.624031360120156, 90.5135523895113 30.77827453451089, 89.89649680409323 30.919113445218557 M91.86511939314951 30.46978818572942 C91.22865881890397 30.61505615850757, 90.59219824465843 30.760324131285724, 89.89649680409323 30.919113445218557 M89.89649680409323 30.919113445218557 C89.37136997462122 31.00401187858821, 88.84624314514919 31.08891031195786, 87.90313059306196 31.24138543543225 M89.89649680409323 30.919113445218557 C89.45738527005605 30.99010559268088, 89.01827373601888 31.061097740143207, 87.90313059306196 31.24138543543225 M87.90313059306196 31.24138543543225 C87.32313572909098 31.297336842413653, 86.74314086511998 31.353288249395053, 85.89321192939245 31.435279871635593 M87.90313059306196 31.24138543543225 C87.31498402162322 31.298123227829205, 86.72683745018449 31.354861020226156, 85.89321192939245 31.435279871635593 M85.89321192939245 31.435279871635593 C85.3494896397924 31.452715987171832, 84.80576735019234 31.470152102708074, 83.875 31.5 M85.89321192939245 31.435279871635593 C85.4072988716422 31.450862157625256, 84.92138581389193 31.466444443614915, 83.875 31.5 M83.875 31.5 C83.875 31.5, 83.875 31.5, 83.875 31.5 M83.875 31.5 C83.875 31.5, 83.875 31.5, 83.875 31.5 M83.875 31.5 C28.44657414108145 31.5, -26.981851717837102 31.5, -83.875 31.5 M83.875 31.5 C34.39360368303122 31.5, -15.087792633937553 31.5, -83.875 31.5 M-83.875 31.5 C-84.29983995326542 31.48637620959958, -84.72467990653084 31.472752419199164, -85.89321192939244 31.435279871635593 M-83.875 31.5 C-84.43513316387896 31.482037619667466, -84.99526632775793 31.464075239334928, -85.89321192939244 31.435279871635593 M-85.89321192939244 31.435279871635593 C-86.53554570994862 31.373314704344732, -87.1778794905048 31.311349537053875, -87.90313059306195 31.24138543543225 M-85.89321192939244 31.435279871635593 C-86.4416392876045 31.382373743969275, -86.99006664581657 31.329467616302953, -87.90313059306195 31.24138543543225 M-87.90313059306195 31.24138543543225 C-88.51726153937382 31.142097506689165, -89.13139248568568 31.042809577946084, -89.89649680409323 30.919113445218557 M-87.90313059306195 31.24138543543225 C-88.34353866123622 31.17018367438541, -88.7839467294105 31.098981913338573, -89.89649680409323 30.919113445218557 M-89.89649680409323 30.919113445218557 C-90.45039376424504 30.792690078579366, -91.00429072439682 30.666266711940178, -91.86511939314947 30.469788185729428 M-89.89649680409323 30.919113445218557 C-90.38578099841355 30.807437520742702, -90.87506519273387 30.695761596266845, -91.86511939314947 30.469788185729428 M-91.86511939314947 30.469788185729428 C-92.29216249273075 30.343044035368678, -92.71920559231202 30.216299885007928, -93.80090886774403 29.89525603083607 M-91.86511939314947 30.469788185729428 C-92.51337264666073 30.277390022838052, -93.161625900172 30.084991859946673, -93.80090886774403 29.89525603083607 M-93.80090886774403 29.89525603083607 C-94.5455275869712 29.621229458980483, -95.29014630619838 29.347202887124894, -95.69591065370028 29.197877856399685 M-93.80090886774403 29.89525603083607 C-94.23347566980942 29.736067449072323, -94.6660424718748 29.576878867308572, -95.69591065370028 29.197877856399685 M-95.69591065370028 29.197877856399685 C-96.14897063092099 28.997321644030798, -96.60203060814169 28.796765431661907, -97.54233778220308 28.380519338926206 M-95.69591065370028 29.197877856399685 C-96.36140753838522 28.90328212681334, -97.02690442307015 28.608686397227, -97.54233778220308 28.380519338926206 M-97.54233778220308 28.380519338926206 C-98.16745716864521 28.054394955427423, -98.79257655508735 27.728270571928636, -99.33260288812403 27.446539179886773 M-97.54233778220308 28.380519338926206 C-98.14885374289103 28.06410035072731, -98.755369703579 27.747681362528414, -99.33260288812403 27.446539179886773 M-99.33260288812403 27.446539179886773 C-99.86099956509187 27.12622200910532, -100.38939624205972 26.805904838323865, -101.05934938813226 26.399775304092994 M-99.33260288812403 27.446539179886773 C-99.91090255869285 27.09597052112186, -100.48920222926168 26.74540186235695, -101.05934938813226 26.399775304092994 M-101.05934938813226 26.399775304092994 C-101.62592034185965 26.00455993323405, -102.19249129558706 25.609344562375107, -102.7154817104733 25.244529088840636 M-101.05934938813226 26.399775304092994 C-101.5311972024118 26.070634694814263, -102.00304501669133 25.74149408553553, -102.7154817104733 25.244529088840636 M-102.7154817104733 25.244529088840636 C-103.09394348776163 24.94271589274405, -103.47240526504997 24.640902696647466, -104.29419445219533 23.98554768862774 M-102.7154817104733 25.244529088840636 C-103.21431062879319 24.84672630087553, -103.71313954711307 24.448923512910426, -104.29419445219533 23.98554768862774 M-104.29419445219533 23.98554768862774 C-104.70939809641213 23.608470724636465, -105.12460174062893 23.231393760645194, -105.7890003440098 22.628004528078435 M-104.29419445219533 23.98554768862774 C-104.77006237865939 23.553377028588468, -105.24593030512344 23.121206368549192, -105.7890003440098 22.628004528078435 M-105.7890003440098 22.628004528078435 C-106.2240829981748 22.178745966702866, -106.65916565233977 21.729487405327298, -107.19375690787244 21.177478043231478 M-105.7890003440098 22.628004528078435 C-106.2003723975395 22.203229108535325, -106.61174445106917 21.77845368899222, -107.19375690787244 21.177478043231478 M-107.19375690787244 21.177478043231478 C-107.6120616530308 20.686113487354177, -108.03036639818916 20.19474893147688, -108.50269169774293 19.639928758550113 M-107.19375690787244 21.177478043231478 C-107.651894152752 20.639323966648202, -108.11003139763159 20.101169890064927, -108.50269169774293 19.639928758550113 M-108.50269169774293 19.639928758550113 C-108.87907572472837 19.135608451679886, -109.2554597517138 18.63128814480966, -109.7104260198041 18.021674793848355 M-108.50269169774293 19.639928758550113 C-108.95033168875572 19.040131951435093, -109.39797167976852 18.440335144320077, -109.7104260198041 18.021674793848355 M-109.7104260198041 18.021674793848355 C-110.12053293286985 17.391640446253685, -110.5306398459356 16.761606098659012, -110.8119970346684 16.329365901781557 M-109.7104260198041 18.021674793848355 C-110.05604779659888 17.490706932249555, -110.40166957339365 16.959739070650752, -110.8119970346684 16.329365901781557 M-110.8119970346684 16.329365901781557 C-111.14420052124295 15.739504972117713, -111.4764040078175 15.149644042453868, -111.8028781507495 14.569956142586314 M-110.8119970346684 16.329365901781557 C-111.07291906750325 15.866072411262431, -111.3338411003381 15.402778920743303, -111.8028781507495 14.569956142586314 M-111.8028781507495 14.569956142586314 C-112.05826937938738 14.039630791822862, -112.31366060802526 13.50930544105941, -112.67899762499809 12.750675308355417 M-111.8028781507495 14.569956142586314 C-112.04389825897613 14.069472730849554, -112.28491836720275 13.568989319112797, -112.67899762499809 12.750675308355417 M-112.67899762499809 12.750675308355417 C-112.97946980864785 12.00850320550604, -113.27994199229761 11.266331102656663, -113.43675529456745 10.878999214271209 M-112.67899762499809 12.750675308355417 C-112.87322427770016 12.27093172106443, -113.06745093040223 11.791188133773446, -113.43675529456745 10.878999214271209 M-113.43675529456745 10.878999214271209 C-113.66536792479663 10.190454396497008, -113.8939805550258 9.501909578722808, -114.07303737065482 8.962618978877522 M-113.43675529456745 10.878999214271209 C-113.57461079570429 10.463800409138347, -113.71246629684113 10.048601604005484, -114.07303737065482 8.962618978877522 M-114.07303737065482 8.962618978877522 C-114.20991768647215 8.440635010361886, -114.34679800228947 7.918651041846249, -114.58522923372743 7.009409419623911 M-114.07303737065482 8.962618978877522 C-114.22146537468404 8.39659867041017, -114.36989337871329 7.830578361942817, -114.58522923372743 7.009409419623911 M-114.58522923372743 7.009409419623911 C-114.7118654893321 6.359159011676045, -114.83850174493678 5.708908603728178, -114.97122617755518 5.027396693551461 M-114.58522923372743 7.009409419623911 C-114.70052127606753 6.417409149189262, -114.81581331840765 5.825408878754612, -114.97122617755518 5.027396693551461 M-114.97122617755518 5.027396693551461 C-115.06729349338165 4.282317562638524, -115.16336080920814 3.5372384317255876, -115.22944205789975 3.024725316091999 M-114.97122617755518 5.027396693551461 C-115.04581567272663 4.448895298363452, -115.1204051678981 3.870393903175444, -115.22944205789975 3.024725316091999 M-115.22944205789975 3.024725316091999 C-115.25719338441446 2.5924760051576556, -115.28494471092918 2.1602266942233124, -115.35881581032167 1.0096246935071416 M-115.22944205789975 3.024725316091999 C-115.26275430381179 2.5058601968509064, -115.29606654972385 1.9869950776098144, -115.35881581032167 1.0096246935071416 M-115.35881581032167 1.0096246935071416 C-115.35881581032167 0.29526679017468094, -115.35881581032167 -0.4190911131577797, -115.35881581032167 -1.0096246935071262 M-115.35881581032167 1.0096246935071416 C-115.35881581032167 0.520883871842367, -115.35881581032167 0.032143050177592336, -115.35881581032167 -1.0096246935071262 M-115.35881581032167 -1.0096246935071262 C-115.31949222615403 -1.6221212583441496, -115.28016864198636 -2.234617823181173, -115.22944205789975 -3.024725316091956 M-115.35881581032167 -1.0096246935071262 C-115.32091079175466 -1.6000259540687214, -115.28300577318764 -2.1904272146303163, -115.22944205789975 -3.024725316091956 M-115.22944205789975 -3.024725316091956 C-115.17455544870941 -3.450415018385248, -115.1196688395191 -3.8761047206785397, -114.97122617755518 -5.027396693551446 M-115.22944205789975 -3.024725316091956 C-115.16416813104887 -3.5309770029525738, -115.09889420419799 -4.037228689813192, -114.97122617755518 -5.027396693551446 M-114.97122617755518 -5.027396693551446 C-114.82830695322843 -5.761256704480509, -114.6853877289017 -6.495116715409572, -114.58522923372745 -7.009409419623896 M-114.97122617755518 -5.027396693551446 C-114.86193959462179 -5.588560199186902, -114.75265301168841 -6.1497237048223585, -114.58522923372745 -7.009409419623896 M-114.58522923372745 -7.009409419623896 C-114.40943191448109 -7.679800788950375, -114.23363459523473 -8.350192158276855, -114.07303737065482 -8.962618978877506 M-114.58522923372745 -7.009409419623896 C-114.48263930123912 -7.400629294959871, -114.3800493687508 -7.791849170295846, -114.07303737065482 -8.962618978877506 M-114.07303737065482 -8.962618978877506 C-113.93072535950168 -9.391240082131024, -113.78841334834854 -9.819861185384541, -113.43675529456746 -10.878999214271168 M-114.07303737065482 -8.962618978877506 C-113.88993134961827 -9.51410514025704, -113.70682532858171 -10.065591301636575, -113.43675529456746 -10.878999214271168 M-113.43675529456746 -10.878999214271168 C-113.18503825781373 -11.500745161670705, -112.93332122106 -12.122491109070245, -112.67899762499809 -12.750675308355401 M-113.43675529456746 -10.878999214271168 C-113.15298510610646 -11.579917066093225, -112.86921491764544 -12.280834917915284, -112.67899762499809 -12.750675308355401 M-112.67899762499809 -12.750675308355401 C-112.33507048392148 -13.464847375662917, -111.9911433428449 -14.179019442970432, -111.8028781507495 -14.5699561425863 M-112.67899762499809 -12.750675308355401 C-112.3303383223376 -13.474673810443917, -111.98167901967709 -14.198672312532436, -111.8028781507495 -14.5699561425863 M-111.8028781507495 -14.5699561425863 C-111.48650976805492 -15.131700241833132, -111.17014138536032 -15.693444341079962, -110.8119970346684 -16.329365901781546 M-111.8028781507495 -14.5699561425863 C-111.42658759569906 -15.238098126628866, -111.05029704064862 -15.906240110671433, -110.8119970346684 -16.329365901781546 M-110.8119970346684 -16.329365901781546 C-110.52853423903542 -16.764840876292276, -110.24507144340247 -17.20031585080301, -109.71042601980412 -18.021674793848344 M-110.8119970346684 -16.329365901781546 C-110.47715324510732 -16.843775880694594, -110.14230945554624 -17.35818585960764, -109.71042601980412 -18.021674793848344 M-109.71042601980412 -18.021674793848344 C-109.2436936695541 -18.647053622991525, -108.77696131930409 -19.272432452134705, -108.50269169774295 -19.639928758550102 M-109.71042601980412 -18.021674793848344 C-109.25554770269127 -18.631170298512362, -108.80066938557842 -19.240665803176384, -108.50269169774295 -19.639928758550102 M-108.50269169774295 -19.639928758550102 C-108.15862530913833 -20.04408871653721, -107.81455892053373 -20.44824867452432, -107.19375690787246 -21.177478043231467 M-108.50269169774295 -19.639928758550102 C-108.10305451110717 -20.10936533797259, -107.70341732447142 -20.578801917395076, -107.19375690787246 -21.177478043231467 M-107.19375690787246 -21.177478043231467 C-106.77392906979003 -21.610984754558107, -106.3541012317076 -22.044491465884743, -105.78900034400984 -22.628004528078403 M-107.19375690787246 -21.177478043231467 C-106.70754888388345 -21.67952774642126, -106.22134085989445 -22.18157744961105, -105.78900034400984 -22.628004528078403 M-105.78900034400984 -22.628004528078403 C-105.46763894959082 -22.919856443733188, -105.14627755517182 -23.211708359387973, -104.29419445219536 -23.98554768862771 M-105.78900034400984 -22.628004528078403 C-105.46706214382948 -22.920380283464205, -105.14512394364911 -23.212756038850003, -104.29419445219536 -23.98554768862771 M-104.29419445219536 -23.98554768862771 C-103.82283972020828 -24.361440544111204, -103.3514849882212 -24.737333399594696, -102.71548171047331 -25.244529088840626 M-104.29419445219536 -23.98554768862771 C-103.83168983616943 -24.354382812143662, -103.3691852201435 -24.723217935659612, -102.71548171047331 -25.244529088840626 M-102.71548171047331 -25.244529088840626 C-102.17580488857932 -25.62098427756079, -101.63612806668533 -25.997439466280955, -101.0593493881323 -26.39977530409297 M-102.71548171047331 -25.244529088840626 C-102.2964908185715 -25.536798997207953, -101.87749992666969 -25.82906890557528, -101.0593493881323 -26.39977530409297 M-101.0593493881323 -26.39977530409297 C-100.37220179991878 -26.816328210195458, -99.68505421170526 -27.232881116297943, -99.33260288812404 -27.446539179886763 M-101.0593493881323 -26.39977530409297 C-100.49259724490763 -26.743343783921052, -99.92584510168295 -27.086912263749134, -99.33260288812404 -27.446539179886763 M-99.33260288812404 -27.446539179886763 C-98.62921068148532 -27.813498443545978, -97.9258184748466 -28.18045770720519, -97.54233778220309 -28.3805193389262 M-99.33260288812404 -27.446539179886763 C-98.85459264283428 -27.69591681867426, -98.37658239754451 -27.94529445746176, -97.54233778220309 -28.3805193389262 M-97.54233778220309 -28.3805193389262 C-96.9557408336826 -28.640188407255994, -96.3691438851621 -28.899857475585787, -95.6959106537003 -29.19787785639968 M-97.54233778220309 -28.3805193389262 C-96.84958385619177 -28.68718095215633, -96.15682993018045 -28.99384256538646, -95.6959106537003 -29.19787785639968 M-95.6959106537003 -29.19787785639968 C-95.0086159355158 -29.4508086659743, -94.32132121733133 -29.703739475548918, -93.80090886774407 -29.895256030836055 M-95.6959106537003 -29.19787785639968 C-95.14764301189395 -29.39964541671494, -94.5993753700876 -29.6014129770302, -93.80090886774407 -29.895256030836055 M-93.80090886774407 -29.895256030836055 C-93.03576007173797 -30.122348177142676, -92.27061127573187 -30.3494403234493, -91.86511939314951 -30.469788185729417 M-93.80090886774407 -29.895256030836055 C-93.13988238127122 -30.09144522222236, -92.47885589479839 -30.287634413608668, -91.86511939314951 -30.469788185729417 M-91.86511939314951 -30.469788185729417 C-91.12056730889309 -30.639727340304532, -90.37601522463666 -30.809666494879647, -89.89649680409325 -30.919113445218553 M-91.86511939314951 -30.469788185729417 C-91.37383203793358 -30.58192131860785, -90.88254468271764 -30.694054451486284, -89.89649680409325 -30.919113445218553 M-89.89649680409325 -30.919113445218553 C-89.12403812957936 -31.043998573207467, -88.35157945506549 -31.168883701196386, -87.90313059306196 -31.24138543543225 M-89.89649680409325 -30.919113445218553 C-89.20529752974119 -31.030861183565367, -88.51409825538911 -31.142608921912178, -87.90313059306196 -31.24138543543225 M-87.90313059306196 -31.24138543543225 C-87.47692800824643 -31.282500686205804, -87.0507254234309 -31.323615936979355, -85.89321192939246 -31.435279871635593 M-87.90313059306196 -31.24138543543225 C-87.34107001199432 -31.295606743711097, -86.77900943092666 -31.349828051989945, -85.89321192939246 -31.435279871635593 M-85.89321192939246 -31.435279871635593 C-85.44007561741118 -31.44981107118451, -84.98693930542989 -31.464342270733425, -83.87500000000001 -31.5 M-85.89321192939246 -31.435279871635593 C-85.24268229650414 -31.456141090783206, -84.59215266361583 -31.477002309930818, -83.87500000000001 -31.5 M-83.87500000000001 -31.5 C-83.87500000000001 -31.5, -83.875 -31.5, -83.875 -31.5 M-83.87500000000001 -31.5 C-83.87500000000001 -31.5, -83.875 -31.5, -83.875 -31.5" stroke="#9370DB" stroke-width="1.3" fill="none" stroke-dasharray="0 0" style=""/></g><g class="label" style="" transform="translate(-100, -24)"><rect/><foreignObject width="200" height="48"><div xmlns="http://www.w3.org/1999/xhtml" style="display: table; white-space: break-spaces; line-height: 1.5; max-width: 200px; text-align: center; width: 200px;"><span class="nodeLabel"><p>minute / plan, forecast, Alert, optimizer change</p></span></div></foreignObject></g></g><g class="node default" id="my-svg-flowchart-G-1" data-look="classic" transform="translate(527.0234375, 284)"><polygon points="163,0 326,-163 163,-326 0,-163" class="label-container" transform="translate(-162.5, 163)"/><g class="label" style="" transform="translate(-100, -48)"><rect/><foreignObject width="200" height="96"><div xmlns="http://www.w3.org/1999/xhtml" style="display: table; white-space: break-spaces; line-height: 1.5; max-width: 200px; text-align: center; width: 200px;"><span class="nodeLabel"><p>Notify enabled, forecast valid,<br />Alert off, optimizer ready,<br />plan still valid?</p></span></div></foreignObject></g></g><g class="node default" id="my-svg-flowchart-X-3" data-look="classic" transform="translate(778.00390625, 2087.9375)"><rect class="basic label-container" style="" x="-56.875" y="-27" width="113.75" height="54"/><g class="label" style="" transform="translate(-26.875, -12)"><rect/><foreignObject width="53.75" height="24"><div xmlns="http://www.w3.org/1999/xhtml" style="display: table-cell; white-space: nowrap; line-height: 1.5; max-width: 200px; text-align: center;"><span class="nodeLabel"><p>nothing</p></span></div></foreignObject></g></g><g class="node default" id="my-svg-flowchart-L-5" data-look="classic" transform="translate(620.0234375, 672)"><polygon points="151,0 302,-151 151,-302 0,-151" class="label-container" transform="translate(-150.5, 151)"/><g class="label" style="" transform="translate(-100, -36)"><rect/><foreignObject width="200" height="72"><div xmlns="http://www.w3.org/1999/xhtml" style="display: table; white-space: break-spaces; line-height: 1.5; max-width: 200px; text-align: center; width: 200px;"><span class="nodeLabel"><p>LIMIT window running or<br />starting within the lead time?</p></span></div></foreignObject></g></g><g class="node default" id="my-svg-flowchart-K-7" data-look="classic" transform="translate(440.125, 1290.53125)"><rect class="basic label-container" style="" x="-69.3359375" y="-27" width="138.671875" height="54"/><g class="label" style="" transform="translate(-39.3359375, -12)"><rect/><foreignObject width="78.671875" height="24"><div xmlns="http://www.w3.org/1999/xhtml" style="display: table-cell; white-space: nowrap; line-height: 1.5; max-width: 200px; text-align: center;"><span class="nodeLabel"><p>event limit</p></span></div></foreignObject></g></g><g class="node default" id="my-svg-flowchart-F-9" data-look="classic" transform="translate(722.921875, 1043.265625)"><polygon points="146.265625,0 292.53125,-146.265625 146.265625,-292.53125 0,-146.265625" class="label-container" transform="translate(-145.765625, 146.265625)"/><g class="label" style="" transform="translate(-95.265625, -36)"><rect/><foreignObject width="190.53125" height="72"><div xmlns="http://www.w3.org/1999/xhtml" style="display: table-cell; white-space: nowrap; line-height: 1.5; max-width: 200px; text-align: center;"><span class="nodeLabel"><p>favorable window running<br />with at least the minimum<br />time remaining?</p></span></div></foreignObject></g></g><g class="node default" id="my-svg-flowchart-K2-13" data-look="classic" transform="translate(645.921875, 1290.53125)"><rect class="basic label-container" style="" x="-86.4609375" y="-27" width="172.921875" height="54"/><g class="label" style="" transform="translate(-56.4609375, -12)"><rect/><foreignObject width="112.921875" height="24"><div xmlns="http://www.w3.org/1999/xhtml" style="display: table-cell; white-space: nowrap; line-height: 1.5; max-width: 200px; text-align: center;"><span class="nodeLabel"><p>event favorable</p></span></div></foreignObject></g></g><g class="node default" id="my-svg-flowchart-S-15" data-look="classic" transform="translate(528.69140625, 1506.53125)"><polygon points="139,0 278,-139 139,-278 0,-139" class="label-container" transform="translate(-138.5, 139)"/><g class="label" style="" transform="translate(-100, -24)"><rect/><foreignObject width="200" height="48"><div xmlns="http://www.w3.org/1999/xhtml" style="display: table; white-space: break-spaces; line-height: 1.5; max-width: 200px; text-align: center; width: 200px;"><span class="nodeLabel"><p>overlaps the stored window?</p></span></div></foreignObject></g></g><g class="node default" id="my-svg-flowchart-E-19" data-look="classic" transform="translate(131.8125, 1841.234375)"><rect class="basic label-container" style="" x="-123.8125" y="-39" width="247.625" height="78"/><g class="label" style="" transform="translate(-93.8125, -24)"><rect/><foreignObject width="187.625" height="48"><div xmlns="http://www.w3.org/1999/xhtml" style="display: table-cell; white-space: nowrap; line-height: 1.5; max-width: 200px; text-align: center;"><span class="nodeLabel"><p>extend the stored window<br />no message</p></span></div></foreignObject></g></g><g class="node default" id="my-svg-flowchart-C-21" data-look="classic" transform="translate(1014.75390625, 1841.234375)"><polygon points="121.703125,0 243.40625,-121.703125 121.703125,-243.40625 0,-121.703125" class="label-container" transform="translate(-121.203125, 121.703125)"/><g class="label" style="" transform="translate(-82.703125, -24)"><rect/><foreignObject width="165.40625" height="48"><div xmlns="http://www.w3.org/1999/xhtml" style="display: table-cell; white-space: nowrap; line-height: 1.5; max-width: 200px; text-align: center;"><span class="nodeLabel"><p>quiet hours, cooldown,<br />daily cap allow it?</p></span></div></foreignObject></g></g><g class="node default" id="my-svg-flowchart-A-25" data-look="classic" transform="translate(1014.87890625, 2087.9375)"><rect class="basic label-container" style="" x="-130" y="-51" width="260" height="102"/><g class="label" style="" transform="translate(-100, -36)"><rect/><foreignObject width="200" height="72"><div xmlns="http://www.w3.org/1999/xhtml" style="display: table; white-space: break-spaces; line-height: 1.5; max-width: 200px; text-align: center; width: 200px;"><span class="nodeLabel"><p>store window, count, time<br />re-check gates, run the action</p></span></div></foreignObject></g></g></g></g></g><defs><filter id="my-svg-drop-shadow" height="130%" width="130%"><feDropShadow dx="4" dy="4" stdDeviation="0" flood-opacity="0.06" flood-color="#000000"/></filter></defs><defs><filter id="my-svg-drop-shadow-small" height="150%" width="150%"><feDropShadow dx="2" dy="2" stdDeviation="0" flood-opacity="0.06" flood-color="#000000"/></filter></defs></svg>